<?xml version="1.0" encoding="UTF-8"?>
<svg xmlns="http://www.w3.org/2000/svg" width="1200" height="800" viewBox="0 0 1200 800" role="img" aria-labelledby="title description">
  <title id="title">Three hundred of 331 local authorities change sides across sources</title>
  <desc id="description">A unit chart shows 300 local authorities above a fitted rate in at least one source and below it in another.</desc>
  <rect width="1200" height="800" fill="#fbfaf6"/>
  <style>
    text { font-family: 'Arial Narrow', 'Roboto Condensed', Arial, sans-serif; }
    .caps { font-weight: 900; letter-spacing: 1.2px; }
  </style>
  
  <text x="55" y="55" fill="#082b55" font-size="31" font-weight="900">DEBIAS</text>
  <text x="186" y="52" fill="#5f6872" font-size="14" font-weight="800" letter-spacing="1.1">DATA STORY · ACT II · 331 LOCAL AUTHORITIES</text>
  <line x1="55" y1="76" x2="1145" y2="76" stroke="#cfd2d1"/>

  <defs><linearGradient id="switch-gradient" x1="0%" y1="0%" x2="100%" y2="0%"><stop offset="0%" stop-color="#078481"/><stop offset="49.5%" stop-color="#078481"/><stop offset="50.5%" stop-color="#f2553d"/><stop offset="100%" stop-color="#f2553d"/></linearGradient></defs>
  <text x="55" y="142" fill="#082b55" font-family="'Arial Narrow', 'Roboto Condensed', Arial, sans-serif" font-size="50" font-weight="900" letter-spacing="0" text-anchor="start"><tspan x="55" dy="0">MOST PLACES CHANGE SIDES</tspan><tspan x="55" dy="52">WHEN THE SOURCE CHANGES.</tspan></text>
  <text x="65" y="292" fill="#082b55" font-size="95" font-weight="900" letter-spacing="-3">300</text>
  <text x="245" y="272" fill="#082b55" font-size="22" font-weight="900">/ 331 local authorities</text>
  <text x="245" y="298" fill="#5f6872" font-family="'Arial Narrow', 'Roboto Condensed', Arial, sans-serif" font-size="14" font-weight="650" letter-spacing="0" text-anchor="start"><tspan x="245" dy="0">change sides across four</tspan><tspan x="245" dy="18">source-specific fitted rates</tspan></text>
  <rect x="65" y="350" width="14" height="14" rx="2" fill="url(#switch-gradient)" stroke="#082b55" stroke-width="2.5"/><rect x="84" y="350" width="14" height="14" rx="2" fill="url(#switch-gradient)" stroke="#082b55" stroke-width="2.5"/><rect x="103" y="350" width="14" height="14" rx="2" fill="url(#switch-gradient)" stroke="#ffffff" stroke-width="1"/><rect x="122" y="350" width="14" height="14" rx="2" fill="url(#switch-gradient)" stroke="#ffffff" stroke-width="1"/><rect x="141" y="350" width="14" height="14" rx="2" fill="url(#switch-gradient)" stroke="#ffffff" stroke-width="1"/><rect x="160" y="350" width="14" height="14" rx="2" fill="url(#switch-gradient)" stroke="#ffffff" stroke-width="1"/><rect x="179" y="350" width="14" height="14" rx="2" fill="url(#switch-gradient)" stroke="#ffffff" stroke-width="1"/><rect x="198" y="350" width="14" height="14" rx="2" fill="url(#switch-gradient)" stroke="#ffffff" stroke-width="1"/><rect x="217" y="350" width="14" height="14" rx="2" fill="url(#switch-gradient)" stroke="#ffffff" stroke-width="1"/><rect x="236" y="350" width="14" height="14" rx="2" fill="url(#switch-gradient)" stroke="#ffffff" stroke-width="1"/><rect x="255" y="350" width="14" height="14" rx="2" fill="url(#switch-gradient)" stroke="#ffffff" stroke-width="1"/><rect x="274" y="350" width="14" height="14" rx="2" fill="url(#switch-gradient)" stroke="#ffffff" stroke-width="1"/><rect x="293" y="350" width="14" height="14" rx="2" fill="url(#switch-gradient)" stroke="#ffffff" stroke-width="1"/><rect x="312" y="350" width="14" height="14" rx="2" fill="url(#switch-gradient)" stroke="#ffffff" stroke-width="1"/><rect x="331" y="350" width="14" height="14" rx="2" fill="url(#switch-gradient)" stroke="#ffffff" stroke-width="1"/><rect x="350" y="350" width="14" height="14" rx="2" fill="url(#switch-gradient)" stroke="#ffffff" stroke-width="1"/><rect x="369" y="350" width="14" height="14" rx="2" fill="url(#switch-gradient)" stroke="#ffffff" stroke-width="1"/><rect x="388" y="350" width="14" height="14" rx="2" fill="url(#switch-gradient)" stroke="#ffffff" stroke-width="1"/><rect x="407" y="350" width="14" height="14" rx="2" fill="url(#switch-gradient)" stroke="#ffffff" stroke-width="1"/><rect x="65" y="369" width="14" height="14" rx="2" fill="url(#switch-gradient)" stroke="#ffffff" stroke-width="1"/><rect x="84" y="369" width="14" height="14" rx="2" fill="url(#switch-gradient)" stroke="#ffffff" stroke-width="1"/><rect x="103" y="369" width="14" height="14" rx="2" fill="url(#switch-gradient)" stroke="#ffffff" stroke-width="1"/><rect x="122" y="369" width="14" height="14" rx="2" fill="url(#switch-gradient)" stroke="#ffffff" stroke-width="1"/><rect x="141" y="369" width="14" height="14" rx="2" fill="url(#switch-gradient)" stroke="#ffffff" stroke-width="1"/><rect x="160" y="369" width="14" height="14" rx="2" fill="url(#switch-gradient)" stroke="#ffffff" stroke-width="1"/><rect x="179" y="369" width="14" height="14" rx="2" fill="url(#switch-gradient)" stroke="#ffffff" stroke-width="1"/><rect x="198" y="369" width="14" height="14" rx="2" fill="url(#switch-gradient)" stroke="#ffffff" stroke-width="1"/><rect x="217" y="369" width="14" height="14" rx="2" fill="url(#switch-gradient)" stroke="#ffffff" stroke-width="1"/><rect x="236" y="369" width="14" height="14" rx="2" fill="url(#switch-gradient)" stroke="#ffffff" stroke-width="1"/><rect x="255" y="369" width="14" height="14" rx="2" fill="url(#switch-gradient)" stroke="#ffffff" stroke-width="1"/><rect x="274" y="369" width="14" height="14" rx="2" fill="url(#switch-gradient)" stroke="#ffffff" stroke-width="1"/><rect x="293" y="369" width="14" height="14" rx="2" fill="url(#switch-gradient)" stroke="#ffffff" stroke-width="1"/><rect x="312" y="369" width="14" height="14" rx="2" fill="url(#switch-gradient)" stroke="#ffffff" stroke-width="1"/><rect x="331" y="369" width="14" height="14" rx="2" fill="url(#switch-gradient)" stroke="#ffffff" stroke-width="1"/><rect x="350" y="369" width="14" height="14" rx="2" fill="url(#switch-gradient)" stroke="#ffffff" stroke-width="1"/><rect x="369" y="369" width="14" height="14" rx="2" fill="url(#switch-gradient)" stroke="#ffffff" stroke-width="1"/><rect x="388" y="369" width="14" height="14" rx="2" fill="url(#switch-gradient)" stroke="#ffffff" stroke-width="1"/><rect x="407" y="369" width="14" height="14" rx="2" fill="url(#switch-gradient)" stroke="#ffffff" stroke-width="1"/><rect x="65" y="388" width="14" height="14" rx="2" fill="url(#switch-gradient)" stroke="#ffffff" stroke-width="1"/><rect x="84" y="388" width="14" height="14" rx="2" fill="url(#switch-gradient)" stroke="#ffffff" stroke-width="1"/><rect x="103" y="388" width="14" height="14" rx="2" fill="url(#switch-gradient)" stroke="#ffffff" stroke-width="1"/><rect x="122" y="388" width="14" height="14" rx="2" fill="url(#switch-gradient)" stroke="#ffffff" stroke-width="1"/><rect x="141" y="388" width="14" height="14" rx="2" fill="url(#switch-gradient)" stroke="#ffffff" stroke-width="1"/><rect x="160" y="388" width="14" height="14" rx="2" fill="url(#switch-gradient)" stroke="#ffffff" stroke-width="1"/><rect x="179" y="388" width="14" height="14" rx="2" fill="url(#switch-gradient)" stroke="#ffffff" stroke-width="1"/><rect x="198" y="388" width="14" height="14" rx="2" fill="url(#switch-gradient)" stroke="#ffffff" stroke-width="1"/><rect x="217" y="388" width="14" height="14" rx="2" fill="url(#switch-gradient)" stroke="#ffffff" stroke-width="1"/><rect x="236" y="388" width="14" height="14" rx="2" fill="url(#switch-gradient)" stroke="#ffffff" stroke-width="1"/><rect x="255" y="388" width="14" height="14" rx="2" fill="url(#switch-gradient)" stroke="#ffffff" stroke-width="1"/><rect x="274" y="388" width="14" height="14" rx="2" fill="url(#switch-gradient)" stroke="#ffffff" stroke-width="1"/><rect x="293" y="388" width="14" height="14" rx="2" fill="url(#switch-gradient)" stroke="#ffffff" stroke-width="1"/><rect x="312" y="388" width="14" height="14" rx="2" fill="url(#switch-gradient)" stroke="#ffffff" stroke-width="1"/><rect x="331" y="388" width="14" height="14" rx="2" fill="url(#switch-gradient)" stroke="#ffffff" stroke-width="1"/><rect x="350" y="388" width="14" height="14" rx="2" fill="url(#switch-gradient)" stroke="#ffffff" stroke-width="1"/><rect x="369" y="388" width="14" height="14" rx="2" fill="url(#switch-gradient)" stroke="#ffffff" stroke-width="1"/><rect x="388" y="388" width="14" height="14" rx="2" fill="url(#switch-gradient)" stroke="#ffffff" stroke-width="1"/><rect x="407" y="388" width="14" height="14" rx="2" fill="url(#switch-gradient)" stroke="#ffffff" stroke-width="1"/><rect x="65" y="407" width="14" height="14" rx="2" fill="url(#switch-gradient)" stroke="#ffffff" stroke-width="1"/><rect x="84" y="407" width="14" height="14" rx="2" fill="url(#switch-gradient)" stroke="#ffffff" stroke-width="1"/><rect x="103" y="407" width="14" height="14" rx="2" fill="url(#switch-gradient)" stroke="#ffffff" stroke-width="1"/><rect x="122" y="407" width="14" height="14" rx="2" fill="url(#switch-gradient)" stroke="#ffffff" stroke-width="1"/><rect x="141" y="407" width="14" height="14" rx="2" fill="url(#switch-gradient)" stroke="#ffffff" stroke-width="1"/><rect x="160" y="407" width="14" height="14" rx="2" fill="url(#switch-gradient)" stroke="#ffffff" stroke-width="1"/><rect x="179" y="407" width="14" height="14" rx="2" fill="url(#switch-gradient)" stroke="#ffffff" stroke-width="1"/><rect x="198" y="407" width="14" height="14" rx="2" fill="url(#switch-gradient)" stroke="#ffffff" stroke-width="1"/><rect x="217" y="407" width="14" height="14" rx="2" fill="url(#switch-gradient)" stroke="#ffffff" stroke-width="1"/><rect x="236" y="407" width="14" height="14" rx="2" fill="url(#switch-gradient)" stroke="#ffffff" stroke-width="1"/><rect x="255" y="407" width="14" height="14" rx="2" fill="url(#switch-gradient)" stroke="#ffffff" stroke-width="1"/><rect x="274" y="407" width="14" height="14" rx="2" fill="url(#switch-gradient)" stroke="#ffffff" stroke-width="1"/><rect x="293" y="407" width="14" height="14" rx="2" fill="url(#switch-gradient)" stroke="#ffffff" stroke-width="1"/><rect x="312" y="407" width="14" height="14" rx="2" fill="url(#switch-gradient)" stroke="#ffffff" stroke-width="1"/><rect x="331" y="407" width="14" height="14" rx="2" fill="url(#switch-gradient)" stroke="#ffffff" stroke-width="1"/><rect x="350" y="407" width="14" height="14" rx="2" fill="url(#switch-gradient)" stroke="#ffffff" stroke-width="1"/><rect x="369" y="407" width="14" height="14" rx="2" fill="url(#switch-gradient)" stroke="#ffffff" stroke-width="1"/><rect x="388" y="407" width="14" height="14" rx="2" fill="url(#switch-gradient)" stroke="#ffffff" stroke-width="1"/><rect x="407" y="407" width="14" height="14" rx="2" fill="url(#switch-gradient)" stroke="#ffffff" stroke-width="1"/><rect x="65" y="426" width="14" height="14" rx="2" fill="url(#switch-gradient)" stroke="#ffffff" stroke-width="1"/><rect x="84" y="426" width="14" height="14" rx="2" fill="url(#switch-gradient)" stroke="#ffffff" stroke-width="1"/><rect x="103" y="426" width="14" height="14" rx="2" fill="url(#switch-gradient)" stroke="#ffffff" stroke-width="1"/><rect x="122" y="426" width="14" height="14" rx="2" fill="url(#switch-gradient)" stroke="#ffffff" stroke-width="1"/><rect x="141" y="426" width="14" height="14" rx="2" fill="url(#switch-gradient)" stroke="#ffffff" stroke-width="1"/><rect x="160" y="426" width="14" height="14" rx="2" fill="url(#switch-gradient)" stroke="#ffffff" stroke-width="1"/><rect x="179" y="426" width="14" height="14" rx="2" fill="url(#switch-gradient)" stroke="#ffffff" stroke-width="1"/><rect x="198" y="426" width="14" height="14" rx="2" fill="url(#switch-gradient)" stroke="#ffffff" stroke-width="1"/><rect x="217" y="426" width="14" height="14" rx="2" fill="url(#switch-gradient)" stroke="#ffffff" stroke-width="1"/><rect x="236" y="426" width="14" height="14" rx="2" fill="url(#switch-gradient)" stroke="#ffffff" stroke-width="1"/><rect x="255" y="426" width="14" height="14" rx="2" fill="url(#switch-gradient)" stroke="#ffffff" stroke-width="1"/><rect x="274" y="426" width="14" height="14" rx="2" fill="url(#switch-gradient)" stroke="#ffffff" stroke-width="1"/><rect x="293" y="426" width="14" height="14" rx="2" fill="url(#switch-gradient)" stroke="#ffffff" stroke-width="1"/><rect x="312" y="426" width="14" height="14" rx="2" fill="url(#switch-gradient)" stroke="#ffffff" stroke-width="1"/><rect x="331" y="426" width="14" height="14" rx="2" fill="url(#switch-gradient)" stroke="#ffffff" stroke-width="1"/><rect x="350" y="426" width="14" height="14" rx="2" fill="url(#switch-gradient)" stroke="#ffffff" stroke-width="1"/><rect x="369" y="426" width="14" height="14" rx="2" fill="url(#switch-gradient)" stroke="#ffffff" stroke-width="1"/><rect x="388" y="426" width="14" height="14" rx="2" fill="url(#switch-gradient)" stroke="#ffffff" stroke-width="1"/><rect x="407" y="426" width="14" height="14" rx="2" fill="url(#switch-gradient)" stroke="#ffffff" stroke-width="1"/><rect x="65" y="445" width="14" height="14" rx="2" fill="url(#switch-gradient)" stroke="#ffffff" stroke-width="1"/><rect x="84" y="445" width="14" height="14" rx="2" fill="url(#switch-gradient)" stroke="#ffffff" stroke-width="1"/><rect x="103" y="445" width="14" height="14" rx="2" fill="url(#switch-gradient)" stroke="#ffffff" stroke-width="1"/><rect x="122" y="445" width="14" height="14" rx="2" fill="url(#switch-gradient)" stroke="#ffffff" stroke-width="1"/><rect x="141" y="445" width="14" height="14" rx="2" fill="url(#switch-gradient)" stroke="#ffffff" stroke-width="1"/><rect x="160" y="445" width="14" height="14" rx="2" fill="url(#switch-gradient)" stroke="#ffffff" stroke-width="1"/><rect x="179" y="445" width="14" height="14" rx="2" fill="url(#switch-gradient)" stroke="#ffffff" stroke-width="1"/><rect x="198" y="445" width="14" height="14" rx="2" fill="url(#switch-gradient)" stroke="#ffffff" stroke-width="1"/><rect x="217" y="445" width="14" height="14" rx="2" fill="url(#switch-gradient)" stroke="#ffffff" stroke-width="1"/><rect x="236" y="445" width="14" height="14" rx="2" fill="url(#switch-gradient)" stroke="#ffffff" stroke-width="1"/><rect x="255" y="445" width="14" height="14" rx="2" fill="url(#switch-gradient)" stroke="#ffffff" stroke-width="1"/><rect x="274" y="445" width="14" height="14" rx="2" fill="url(#switch-gradient)" stroke="#ffffff" stroke-width="1"/><rect x="293" y="445" width="14" height="14" rx="2" fill="url(#switch-gradient)" stroke="#ffffff" stroke-width="1"/><rect x="312" y="445" width="14" height="14" rx="2" fill="url(#switch-gradient)" stroke="#ffffff" stroke-width="1"/><rect x="331" y="445" width="14" height="14" rx="2" fill="url(#switch-gradient)" stroke="#ffffff" stroke-width="1"/><rect x="350" y="445" width="14" height="14" rx="2" fill="url(#switch-gradient)" stroke="#ffffff" stroke-width="1"/><rect x="369" y="445" width="14" height="14" rx="2" fill="url(#switch-gradient)" stroke="#ffffff" stroke-width="1"/><rect x="388" y="445" width="14" height="14" rx="2" fill="url(#switch-gradient)" stroke="#ffffff" stroke-width="1"/><rect x="407" y="445" width="14" height="14" rx="2" fill="url(#switch-gradient)" stroke="#ffffff" stroke-width="1"/><rect x="65" y="464" width="14" height="14" rx="2" fill="url(#switch-gradient)" stroke="#ffffff" stroke-width="1"/><rect x="84" y="464" width="14" height="14" rx="2" fill="url(#switch-gradient)" stroke="#ffffff" stroke-width="1"/><rect x="103" y="464" width="14" height="14" rx="2" fill="url(#switch-gradient)" stroke="#ffffff" stroke-width="1"/><rect x="122" y="464" width="14" height="14" rx="2" fill="url(#switch-gradient)" stroke="#ffffff" stroke-width="1"/><rect x="141" y="464" width="14" height="14" rx="2" fill="url(#switch-gradient)" stroke="#ffffff" stroke-width="1"/><rect x="160" y="464" width="14" height="14" rx="2" fill="url(#switch-gradient)" stroke="#ffffff" stroke-width="1"/><rect x="179" y="464" width="14" height="14" rx="2" fill="url(#switch-gradient)" stroke="#ffffff" stroke-width="1"/><rect x="198" y="464" width="14" height="14" rx="2" fill="url(#switch-gradient)" stroke="#ffffff" stroke-width="1"/><rect x="217" y="464" width="14" height="14" rx="2" fill="url(#switch-gradient)" stroke="#ffffff" stroke-width="1"/><rect x="236" y="464" width="14" height="14" rx="2" fill="url(#switch-gradient)" stroke="#ffffff" stroke-width="1"/><rect x="255" y="464" width="14" height="14" rx="2" fill="url(#switch-gradient)" stroke="#ffffff" stroke-width="1"/><rect x="274" y="464" width="14" height="14" rx="2" fill="url(#switch-gradient)" stroke="#ffffff" stroke-width="1"/><rect x="293" y="464" width="14" height="14" rx="2" fill="url(#switch-gradient)" stroke="#ffffff" stroke-width="1"/><rect x="312" y="464" width="14" height="14" rx="2" fill="url(#switch-gradient)" stroke="#ffffff" stroke-width="1"/><rect x="331" y="464" width="14" height="14" rx="2" fill="url(#switch-gradient)" stroke="#ffffff" stroke-width="1"/><rect x="350" y="464" width="14" height="14" rx="2" fill="url(#switch-gradient)" stroke="#ffffff" stroke-width="1"/><rect x="369" y="464" width="14" height="14" rx="2" fill="url(#switch-gradient)" stroke="#ffffff" stroke-width="1"/><rect x="388" y="464" width="14" height="14" rx="2" fill="url(#switch-gradient)" stroke="#ffffff" stroke-width="1"/><rect x="407" y="464" width="14" height="14" rx="2" fill="url(#switch-gradient)" stroke="#ffffff" stroke-width="1"/><rect x="65" y="483" width="14" height="14" rx="2" fill="url(#switch-gradient)" stroke="#ffffff" stroke-width="1"/><rect x="84" y="483" width="14" height="14" rx="2" fill="url(#switch-gradient)" stroke="#ffffff" stroke-width="1"/><rect x="103" y="483" width="14" height="14" rx="2" fill="url(#switch-gradient)" stroke="#ffffff" stroke-width="1"/><rect x="122" y="483" width="14" height="14" rx="2" fill="url(#switch-gradient)" stroke="#ffffff" stroke-width="1"/><rect x="141" y="483" width="14" height="14" rx="2" fill="url(#switch-gradient)" stroke="#ffffff" stroke-width="1"/><rect x="160" y="483" width="14" height="14" rx="2" fill="url(#switch-gradient)" stroke="#ffffff" stroke-width="1"/><rect x="179" y="483" width="14" height="14" rx="2" fill="url(#switch-gradient)" stroke="#ffffff" stroke-width="1"/><rect x="198" y="483" width="14" height="14" rx="2" fill="url(#switch-gradient)" stroke="#ffffff" stroke-width="1"/><rect x="217" y="483" width="14" height="14" rx="2" fill="url(#switch-gradient)" stroke="#ffffff" stroke-width="1"/><rect x="236" y="483" width="14" height="14" rx="2" fill="url(#switch-gradient)" stroke="#ffffff" stroke-width="1"/><rect x="255" y="483" width="14" height="14" rx="2" fill="url(#switch-gradient)" stroke="#ffffff" stroke-width="1"/><rect x="274" y="483" width="14" height="14" rx="2" fill="url(#switch-gradient)" stroke="#ffffff" stroke-width="1"/><rect x="293" y="483" width="14" height="14" rx="2" fill="url(#switch-gradient)" stroke="#ffffff" stroke-width="1"/><rect x="312" y="483" width="14" height="14" rx="2" fill="url(#switch-gradient)" stroke="#ffffff" stroke-width="1"/><rect x="331" y="483" width="14" height="14" rx="2" fill="url(#switch-gradient)" stroke="#ffffff" stroke-width="1"/><rect x="350" y="483" width="14" height="14" rx="2" fill="url(#switch-gradient)" stroke="#ffffff" stroke-width="1"/><rect x="369" y="483" width="14" height="14" rx="2" fill="url(#switch-gradient)" stroke="#ffffff" stroke-width="1"/><rect x="388" y="483" width="14" height="14" rx="2" fill="url(#switch-gradient)" stroke="#ffffff" stroke-width="1"/><rect x="407" y="483" width="14" height="14" rx="2" fill="url(#switch-gradient)" stroke="#ffffff" stroke-width="1"/><rect x="65" y="502" width="14" height="14" rx="2" fill="url(#switch-gradient)" stroke="#ffffff" stroke-width="1"/><rect x="84" y="502" width="14" height="14" rx="2" fill="url(#switch-gradient)" stroke="#ffffff" stroke-width="1"/><rect x="103" y="502" width="14" height="14" rx="2" fill="url(#switch-gradient)" stroke="#ffffff" stroke-width="1"/><rect x="122" y="502" width="14" height="14" rx="2" fill="url(#switch-gradient)" stroke="#ffffff" stroke-width="1"/><rect x="141" y="502" width="14" height="14" rx="2" fill="url(#switch-gradient)" stroke="#ffffff" stroke-width="1"/><rect x="160" y="502" width="14" height="14" rx="2" fill="url(#switch-gradient)" stroke="#ffffff" stroke-width="1"/><rect x="179" y="502" width="14" height="14" rx="2" fill="url(#switch-gradient)" stroke="#ffffff" stroke-width="1"/><rect x="198" y="502" width="14" height="14" rx="2" fill="url(#switch-gradient)" stroke="#ffffff" stroke-width="1"/><rect x="217" y="502" width="14" height="14" rx="2" fill="url(#switch-gradient)" stroke="#ffffff" stroke-width="1"/><rect x="236" y="502" width="14" height="14" rx="2" fill="url(#switch-gradient)" stroke="#ffffff" stroke-width="1"/><rect x="255" y="502" width="14" height="14" rx="2" fill="url(#switch-gradient)" stroke="#ffffff" stroke-width="1"/><rect x="274" y="502" width="14" height="14" rx="2" fill="url(#switch-gradient)" stroke="#ffffff" stroke-width="1"/><rect x="293" y="502" width="14" height="14" rx="2" fill="url(#switch-gradient)" stroke="#ffffff" stroke-width="1"/><rect x="312" y="502" width="14" height="14" rx="2" fill="url(#switch-gradient)" stroke="#ffffff" stroke-width="1"/><rect x="331" y="502" width="14" height="14" rx="2" fill="url(#switch-gradient)" stroke="#ffffff" stroke-width="1"/><rect x="350" y="502" width="14" height="14" rx="2" fill="url(#switch-gradient)" stroke="#ffffff" stroke-width="1"/><rect x="369" y="502" width="14" height="14" rx="2" fill="url(#switch-gradient)" stroke="#ffffff" stroke-width="1"/><rect x="388" y="502" width="14" height="14" rx="2" fill="url(#switch-gradient)" stroke="#ffffff" stroke-width="1"/><rect x="407" y="502" width="14" height="14" rx="2" fill="url(#switch-gradient)" stroke="#ffffff" stroke-width="1"/><rect x="65" y="521" width="14" height="14" rx="2" fill="url(#switch-gradient)" stroke="#ffffff" stroke-width="1"/><rect x="84" y="521" width="14" height="14" rx="2" fill="url(#switch-gradient)" stroke="#ffffff" stroke-width="1"/><rect x="103" y="521" width="14" height="14" rx="2" fill="url(#switch-gradient)" stroke="#ffffff" stroke-width="1"/><rect x="122" y="521" width="14" height="14" rx="2" fill="url(#switch-gradient)" stroke="#ffffff" stroke-width="1"/><rect x="141" y="521" width="14" height="14" rx="2" fill="url(#switch-gradient)" stroke="#ffffff" stroke-width="1"/><rect x="160" y="521" width="14" height="14" rx="2" fill="url(#switch-gradient)" stroke="#ffffff" stroke-width="1"/><rect x="179" y="521" width="14" height="14" rx="2" fill="url(#switch-gradient)" stroke="#ffffff" stroke-width="1"/><rect x="198" y="521" width="14" height="14" rx="2" fill="url(#switch-gradient)" stroke="#ffffff" stroke-width="1"/><rect x="217" y="521" width="14" height="14" rx="2" fill="url(#switch-gradient)" stroke="#ffffff" stroke-width="1"/><rect x="236" y="521" width="14" height="14" rx="2" fill="url(#switch-gradient)" stroke="#ffffff" stroke-width="1"/><rect x="255" y="521" width="14" height="14" rx="2" fill="url(#switch-gradient)" stroke="#ffffff" stroke-width="1"/><rect x="274" y="521" width="14" height="14" rx="2" fill="url(#switch-gradient)" stroke="#ffffff" stroke-width="1"/><rect x="293" y="521" width="14" height="14" rx="2" fill="url(#switch-gradient)" stroke="#ffffff" stroke-width="1"/><rect x="312" y="521" width="14" height="14" rx="2" fill="url(#switch-gradient)" stroke="#ffffff" stroke-width="1"/><rect x="331" y="521" width="14" height="14" rx="2" fill="url(#switch-gradient)" stroke="#ffffff" stroke-width="1"/><rect x="350" y="521" width="14" height="14" rx="2" fill="url(#switch-gradient)" stroke="#ffffff" stroke-width="1"/><rect x="369" y="521" width="14" height="14" rx="2" fill="url(#switch-gradient)" stroke="#ffffff" stroke-width="1"/><rect x="388" y="521" width="14" height="14" rx="2" fill="url(#switch-gradient)" stroke="#ffffff" stroke-width="1"/><rect x="407" y="521" width="14" height="14" rx="2" fill="url(#switch-gradient)" stroke="#ffffff" stroke-width="1"/><rect x="65" y="540" width="14" height="14" rx="2" fill="url(#switch-gradient)" stroke="#ffffff" stroke-width="1"/><rect x="84" y="540" width="14" height="14" rx="2" fill="url(#switch-gradient)" stroke="#ffffff" stroke-width="1"/><rect x="103" y="540" width="14" height="14" rx="2" fill="url(#switch-gradient)" stroke="#ffffff" stroke-width="1"/><rect x="122" y="540" width="14" height="14" rx="2" fill="url(#switch-gradient)" stroke="#ffffff" stroke-width="1"/><rect x="141" y="540" width="14" height="14" rx="2" fill="url(#switch-gradient)" stroke="#ffffff" stroke-width="1"/><rect x="160" y="540" width="14" height="14" rx="2" fill="url(#switch-gradient)" stroke="#ffffff" stroke-width="1"/><rect x="179" y="540" width="14" height="14" rx="2" fill="url(#switch-gradient)" stroke="#ffffff" stroke-width="1"/><rect x="198" y="540" width="14" height="14" rx="2" fill="url(#switch-gradient)" stroke="#ffffff" stroke-width="1"/><rect x="217" y="540" width="14" height="14" rx="2" fill="url(#switch-gradient)" stroke="#ffffff" stroke-width="1"/><rect x="236" y="540" width="14" height="14" rx="2" fill="url(#switch-gradient)" stroke="#ffffff" stroke-width="1"/><rect x="255" y="540" width="14" height="14" rx="2" fill="url(#switch-gradient)" stroke="#ffffff" stroke-width="1"/><rect x="274" y="540" width="14" height="14" rx="2" fill="url(#switch-gradient)" stroke="#ffffff" stroke-width="1"/><rect x="293" y="540" width="14" height="14" rx="2" fill="url(#switch-gradient)" stroke="#ffffff" stroke-width="1"/><rect x="312" y="540" width="14" height="14" rx="2" fill="url(#switch-gradient)" stroke="#ffffff" stroke-width="1"/><rect x="331" y="540" width="14" height="14" rx="2" fill="url(#switch-gradient)" stroke="#ffffff" stroke-width="1"/><rect x="350" y="540" width="14" height="14" rx="2" fill="url(#switch-gradient)" stroke="#ffffff" stroke-width="1"/><rect x="369" y="540" width="14" height="14" rx="2" fill="url(#switch-gradient)" stroke="#ffffff" stroke-width="1"/><rect x="388" y="540" width="14" height="14" rx="2" fill="url(#switch-gradient)" stroke="#ffffff" stroke-width="1"/><rect x="407" y="540" width="14" height="14" rx="2" fill="url(#switch-gradient)" stroke="#ffffff" stroke-width="1"/><rect x="65" y="559" width="14" height="14" rx="2" fill="url(#switch-gradient)" stroke="#ffffff" stroke-width="1"/><rect x="84" y="559" width="14" height="14" rx="2" fill="url(#switch-gradient)" stroke="#ffffff" stroke-width="1"/><rect x="103" y="559" width="14" height="14" rx="2" fill="url(#switch-gradient)" stroke="#ffffff" stroke-width="1"/><rect x="122" y="559" width="14" height="14" rx="2" fill="url(#switch-gradient)" stroke="#ffffff" stroke-width="1"/><rect x="141" y="559" width="14" height="14" rx="2" fill="url(#switch-gradient)" stroke="#ffffff" stroke-width="1"/><rect x="160" y="559" width="14" height="14" rx="2" fill="url(#switch-gradient)" stroke="#ffffff" stroke-width="1"/><rect x="179" y="559" width="14" height="14" rx="2" fill="url(#switch-gradient)" stroke="#ffffff" stroke-width="1"/><rect x="198" y="559" width="14" height="14" rx="2" fill="url(#switch-gradient)" stroke="#ffffff" stroke-width="1"/><rect x="217" y="559" width="14" height="14" rx="2" fill="url(#switch-gradient)" stroke="#ffffff" stroke-width="1"/><rect x="236" y="559" width="14" height="14" rx="2" fill="url(#switch-gradient)" stroke="#ffffff" stroke-width="1"/><rect x="255" y="559" width="14" height="14" rx="2" fill="url(#switch-gradient)" stroke="#ffffff" stroke-width="1"/><rect x="274" y="559" width="14" height="14" rx="2" fill="url(#switch-gradient)" stroke="#ffffff" stroke-width="1"/><rect x="293" y="559" width="14" height="14" rx="2" fill="url(#switch-gradient)" stroke="#ffffff" stroke-width="1"/><rect x="312" y="559" width="14" height="14" rx="2" fill="url(#switch-gradient)" stroke="#ffffff" stroke-width="1"/><rect x="331" y="559" width="14" height="14" rx="2" fill="url(#switch-gradient)" stroke="#ffffff" stroke-width="1"/><rect x="350" y="559" width="14" height="14" rx="2" fill="url(#switch-gradient)" stroke="#ffffff" stroke-width="1"/><rect x="369" y="559" width="14" height="14" rx="2" fill="url(#switch-gradient)" stroke="#ffffff" stroke-width="1"/><rect x="388" y="559" width="14" height="14" rx="2" fill="url(#switch-gradient)" stroke="#ffffff" stroke-width="1"/><rect x="407" y="559" width="14" height="14" rx="2" fill="url(#switch-gradient)" stroke="#ffffff" stroke-width="1"/><rect x="65" y="578" width="14" height="14" rx="2" fill="url(#switch-gradient)" stroke="#ffffff" stroke-width="1"/><rect x="84" y="578" width="14" height="14" rx="2" fill="url(#switch-gradient)" stroke="#ffffff" stroke-width="1"/><rect x="103" y="578" width="14" height="14" rx="2" fill="url(#switch-gradient)" stroke="#ffffff" stroke-width="1"/><rect x="122" y="578" width="14" height="14" rx="2" fill="url(#switch-gradient)" stroke="#ffffff" stroke-width="1"/><rect x="141" y="578" width="14" height="14" rx="2" fill="url(#switch-gradient)" stroke="#ffffff" stroke-width="1"/><rect x="160" y="578" width="14" height="14" rx="2" fill="url(#switch-gradient)" stroke="#ffffff" stroke-width="1"/><rect x="179" y="578" width="14" height="14" rx="2" fill="url(#switch-gradient)" stroke="#ffffff" stroke-width="1"/><rect x="198" y="578" width="14" height="14" rx="2" fill="url(#switch-gradient)" stroke="#ffffff" stroke-width="1"/><rect x="217" y="578" width="14" height="14" rx="2" fill="url(#switch-gradient)" stroke="#ffffff" stroke-width="1"/><rect x="236" y="578" width="14" height="14" rx="2" fill="url(#switch-gradient)" stroke="#ffffff" stroke-width="1"/><rect x="255" y="578" width="14" height="14" rx="2" fill="url(#switch-gradient)" stroke="#ffffff" stroke-width="1"/><rect x="274" y="578" width="14" height="14" rx="2" fill="url(#switch-gradient)" stroke="#ffffff" stroke-width="1"/><rect x="293" y="578" width="14" height="14" rx="2" fill="url(#switch-gradient)" stroke="#ffffff" stroke-width="1"/><rect x="312" y="578" width="14" height="14" rx="2" fill="url(#switch-gradient)" stroke="#ffffff" stroke-width="1"/><rect x="331" y="578" width="14" height="14" rx="2" fill="url(#switch-gradient)" stroke="#ffffff" stroke-width="1"/><rect x="350" y="578" width="14" height="14" rx="2" fill="url(#switch-gradient)" stroke="#ffffff" stroke-width="1"/><rect x="369" y="578" width="14" height="14" rx="2" fill="url(#switch-gradient)" stroke="#ffffff" stroke-width="1"/><rect x="388" y="578" width="14" height="14" rx="2" fill="url(#switch-gradient)" stroke="#ffffff" stroke-width="1"/><rect x="407" y="578" width="14" height="14" rx="2" fill="url(#switch-gradient)" stroke="#ffffff" stroke-width="1"/><rect x="65" y="597" width="14" height="14" rx="2" fill="url(#switch-gradient)" stroke="#ffffff" stroke-width="1"/><rect x="84" y="597" width="14" height="14" rx="2" fill="url(#switch-gradient)" stroke="#ffffff" stroke-width="1"/><rect x="103" y="597" width="14" height="14" rx="2" fill="url(#switch-gradient)" stroke="#ffffff" stroke-width="1"/><rect x="122" y="597" width="14" height="14" rx="2" fill="url(#switch-gradient)" stroke="#ffffff" stroke-width="1"/><rect x="141" y="597" width="14" height="14" rx="2" fill="url(#switch-gradient)" stroke="#ffffff" stroke-width="1"/><rect x="160" y="597" width="14" height="14" rx="2" fill="url(#switch-gradient)" stroke="#ffffff" stroke-width="1"/><rect x="179" y="597" width="14" height="14" rx="2" fill="url(#switch-gradient)" stroke="#ffffff" stroke-width="1"/><rect x="198" y="597" width="14" height="14" rx="2" fill="url(#switch-gradient)" stroke="#ffffff" stroke-width="1"/><rect x="217" y="597" width="14" height="14" rx="2" fill="url(#switch-gradient)" stroke="#ffffff" stroke-width="1"/><rect x="236" y="597" width="14" height="14" rx="2" fill="url(#switch-gradient)" stroke="#ffffff" stroke-width="1"/><rect x="255" y="597" width="14" height="14" rx="2" fill="url(#switch-gradient)" stroke="#ffffff" stroke-width="1"/><rect x="274" y="597" width="14" height="14" rx="2" fill="url(#switch-gradient)" stroke="#ffffff" stroke-width="1"/><rect x="293" y="597" width="14" height="14" rx="2" fill="url(#switch-gradient)" stroke="#ffffff" stroke-width="1"/><rect x="312" y="597" width="14" height="14" rx="2" fill="url(#switch-gradient)" stroke="#ffffff" stroke-width="1"/><rect x="331" y="597" width="14" height="14" rx="2" fill="url(#switch-gradient)" stroke="#ffffff" stroke-width="1"/><rect x="350" y="597" width="14" height="14" rx="2" fill="url(#switch-gradient)" stroke="#ffffff" stroke-width="1"/><rect x="369" y="597" width="14" height="14" rx="2" fill="url(#switch-gradient)" stroke="#ffffff" stroke-width="1"/><rect x="388" y="597" width="14" height="14" rx="2" fill="url(#switch-gradient)" stroke="#ffffff" stroke-width="1"/><rect x="407" y="597" width="14" height="14" rx="2" fill="url(#switch-gradient)" stroke="#ffffff" stroke-width="1"/><rect x="65" y="616" width="14" height="14" rx="2" fill="url(#switch-gradient)" stroke="#ffffff" stroke-width="1"/><rect x="84" y="616" width="14" height="14" rx="2" fill="url(#switch-gradient)" stroke="#ffffff" stroke-width="1"/><rect x="103" y="616" width="14" height="14" rx="2" fill="url(#switch-gradient)" stroke="#ffffff" stroke-width="1"/><rect x="122" y="616" width="14" height="14" rx="2" fill="url(#switch-gradient)" stroke="#ffffff" stroke-width="1"/><rect x="141" y="616" width="14" height="14" rx="2" fill="url(#switch-gradient)" stroke="#ffffff" stroke-width="1"/><rect x="160" y="616" width="14" height="14" rx="2" fill="url(#switch-gradient)" stroke="#ffffff" stroke-width="1"/><rect x="179" y="616" width="14" height="14" rx="2" fill="url(#switch-gradient)" stroke="#ffffff" stroke-width="1"/><rect x="198" y="616" width="14" height="14" rx="2" fill="url(#switch-gradient)" stroke="#ffffff" stroke-width="1"/><rect x="217" y="616" width="14" height="14" rx="2" fill="url(#switch-gradient)" stroke="#ffffff" stroke-width="1"/><rect x="236" y="616" width="14" height="14" rx="2" fill="url(#switch-gradient)" stroke="#ffffff" stroke-width="1"/><rect x="255" y="616" width="14" height="14" rx="2" fill="url(#switch-gradient)" stroke="#ffffff" stroke-width="1"/><rect x="274" y="616" width="14" height="14" rx="2" fill="url(#switch-gradient)" stroke="#ffffff" stroke-width="1"/><rect x="293" y="616" width="14" height="14" rx="2" fill="url(#switch-gradient)" stroke="#ffffff" stroke-width="1"/><rect x="312" y="616" width="14" height="14" rx="2" fill="url(#switch-gradient)" stroke="#ffffff" stroke-width="1"/><rect x="331" y="616" width="14" height="14" rx="2" fill="url(#switch-gradient)" stroke="#ffffff" stroke-width="1"/><rect x="350" y="616" width="14" height="14" rx="2" fill="url(#switch-gradient)" stroke="#ffffff" stroke-width="1"/><rect x="369" y="616" width="14" height="14" rx="2" fill="url(#switch-gradient)" stroke="#ffffff" stroke-width="1"/><rect x="388" y="616" width="14" height="14" rx="2" fill="url(#switch-gradient)" stroke="#ffffff" stroke-width="1"/><rect x="407" y="616" width="14" height="14" rx="2" fill="url(#switch-gradient)" stroke="#ffffff" stroke-width="1"/><rect x="65" y="635" width="14" height="14" rx="2" fill="url(#switch-gradient)" stroke="#ffffff" stroke-width="1"/><rect x="84" y="635" width="14" height="14" rx="2" fill="url(#switch-gradient)" stroke="#ffffff" stroke-width="1"/><rect x="103" y="635" width="14" height="14" rx="2" fill="url(#switch-gradient)" stroke="#ffffff" stroke-width="1"/><rect x="122" y="635" width="14" height="14" rx="2" fill="url(#switch-gradient)" stroke="#ffffff" stroke-width="1"/><rect x="141" y="635" width="14" height="14" rx="2" fill="url(#switch-gradient)" stroke="#ffffff" stroke-width="1"/><rect x="160" y="635" width="14" height="14" rx="2" fill="url(#switch-gradient)" stroke="#ffffff" stroke-width="1"/><rect x="179" y="635" width="14" height="14" rx="2" fill="url(#switch-gradient)" stroke="#ffffff" stroke-width="1"/><rect x="198" y="635" width="14" height="14" rx="2" fill="url(#switch-gradient)" stroke="#ffffff" stroke-width="1"/><rect x="217" y="635" width="14" height="14" rx="2" fill="url(#switch-gradient)" stroke="#ffffff" stroke-width="1"/><rect x="236" y="635" width="14" height="14" rx="2" fill="url(#switch-gradient)" stroke="#ffffff" stroke-width="1"/><rect x="255" y="635" width="14" height="14" rx="2" fill="url(#switch-gradient)" stroke="#ffffff" stroke-width="1"/><rect x="274" y="635" width="14" height="14" rx="2" fill="url(#switch-gradient)" stroke="#ffffff" stroke-width="1"/><rect x="293" y="635" width="14" height="14" rx="2" fill="url(#switch-gradient)" stroke="#ffffff" stroke-width="1"/><rect x="312" y="635" width="14" height="14" rx="2" fill="url(#switch-gradient)" stroke="#ffffff" stroke-width="1"/><rect x="331" y="635" width="14" height="14" rx="2" fill="url(#switch-gradient)" stroke="#ffffff" stroke-width="1"/><rect x="350" y="635" width="14" height="14" rx="2" fill="#fbfaf6" stroke="#939aa0" stroke-width="1"/><rect x="369" y="635" width="14" height="14" rx="2" fill="#fbfaf6" stroke="#939aa0" stroke-width="1"/><rect x="388" y="635" width="14" height="14" rx="2" fill="#fbfaf6" stroke="#939aa0" stroke-width="1"/><rect x="407" y="635" width="14" height="14" rx="2" fill="#fbfaf6" stroke="#939aa0" stroke-width="1"/><rect x="65" y="654" width="14" height="14" rx="2" fill="#fbfaf6" stroke="#939aa0" stroke-width="1"/><rect x="84" y="654" width="14" height="14" rx="2" fill="#fbfaf6" stroke="#939aa0" stroke-width="1"/><rect x="103" y="654" width="14" height="14" rx="2" fill="#fbfaf6" stroke="#939aa0" stroke-width="1"/><rect x="122" y="654" width="14" height="14" rx="2" fill="#fbfaf6" stroke="#939aa0" stroke-width="1"/><rect x="141" y="654" width="14" height="14" rx="2" fill="#fbfaf6" stroke="#939aa0" stroke-width="1"/><rect x="160" y="654" width="14" height="14" rx="2" fill="#fbfaf6" stroke="#939aa0" stroke-width="1"/><rect x="179" y="654" width="14" height="14" rx="2" fill="#fbfaf6" stroke="#939aa0" stroke-width="1"/><rect x="198" y="654" width="14" height="14" rx="2" fill="#fbfaf6" stroke="#939aa0" stroke-width="1"/><rect x="217" y="654" width="14" height="14" rx="2" fill="#fbfaf6" stroke="#939aa0" stroke-width="1"/><rect x="236" y="654" width="14" height="14" rx="2" fill="#fbfaf6" stroke="#939aa0" stroke-width="1"/><rect x="255" y="654" width="14" height="14" rx="2" fill="#fbfaf6" stroke="#939aa0" stroke-width="1"/><rect x="274" y="654" width="14" height="14" rx="2" fill="#fbfaf6" stroke="#939aa0" stroke-width="1"/><rect x="293" y="654" width="14" height="14" rx="2" fill="#fbfaf6" stroke="#939aa0" stroke-width="1"/><rect x="312" y="654" width="14" height="14" rx="2" fill="#fbfaf6" stroke="#939aa0" stroke-width="1"/><rect x="331" y="654" width="14" height="14" rx="2" fill="#fbfaf6" stroke="#939aa0" stroke-width="1"/><rect x="350" y="654" width="14" height="14" rx="2" fill="#fbfaf6" stroke="#939aa0" stroke-width="1"/><rect x="369" y="654" width="14" height="14" rx="2" fill="#fbfaf6" stroke="#939aa0" stroke-width="1"/><rect x="388" y="654" width="14" height="14" rx="2" fill="#fbfaf6" stroke="#939aa0" stroke-width="1"/><rect x="407" y="654" width="14" height="14" rx="2" fill="#fbfaf6" stroke="#939aa0" stroke-width="1"/><rect x="65" y="673" width="14" height="14" rx="2" fill="#fbfaf6" stroke="#939aa0" stroke-width="1"/><rect x="84" y="673" width="14" height="14" rx="2" fill="#fbfaf6" stroke="#939aa0" stroke-width="1"/><rect x="103" y="673" width="14" height="14" rx="2" fill="#fbfaf6" stroke="#939aa0" stroke-width="1"/><rect x="122" y="673" width="14" height="14" rx="2" fill="#fbfaf6" stroke="#939aa0" stroke-width="1"/><rect x="141" y="673" width="14" height="14" rx="2" fill="#fbfaf6" stroke="#939aa0" stroke-width="1"/><rect x="160" y="673" width="14" height="14" rx="2" fill="#fbfaf6" stroke="#939aa0" stroke-width="1"/><rect x="179" y="673" width="14" height="14" rx="2" fill="#fbfaf6" stroke="#939aa0" stroke-width="1"/><rect x="198" y="673" width="14" height="14" rx="2" fill="#fbfaf6" stroke="#939aa0" stroke-width="1"/>
  <rect x="65" y="698" width="14" height="14" rx="2" fill="url(#switch-gradient)"/>
  <text x="88" y="710" fill="#5f6872" font-size="13">300 change sides</text>
  <rect x="240" y="698" width="14" height="14" rx="2" fill="#fbfaf6" stroke="#939aa0"/>
  <text x="263" y="710" fill="#5f6872" font-size="13">31 remain on one side</text>
  <rect x="500" y="250" width="645" height="420" fill="#ffffff" stroke="#cfd2d1" rx="5"/>
  <text x="535" y="300" fill="#078481" font-size="14" font-weight="900" letter-spacing="1">THE ENGLAND-AND-WALES PATTERN</text>
  <text x="535" y="410" fill="#082b55" font-size="120" font-weight="900" letter-spacing="-4">91%</text>
  <text x="535" y="468" fill="#082b55" font-family="'Arial Narrow', 'Roboto Condensed', Arial, sans-serif" font-size="31" font-weight="900" letter-spacing="0" text-anchor="start"><tspan x="535" dy="0">SIT ABOVE A FITTED RATE IN</tspan><tspan x="535" dy="35">AT LEAST ONE DATASET AND</tspan><tspan x="535" dy="35">BELOW IT IN ANOTHER.</tspan></text>
  <text x="535" y="590" fill="#304b68" font-family="'Arial Narrow', 'Roboto Condensed', Arial, sans-serif" font-size="19" font-weight="650" letter-spacing="0" text-anchor="start"><tspan x="535" dy="0">The pair is memorable. The full pattern</tspan><tspan x="535" dy="27">shows it is not an edge case.</tspan></text>
  <line x1="55" y1="730" x2="1145" y2="730" stroke="#cfd2d1"/>
  <text x="55" y="755" fill="#304b68" font-size="14" font-weight="650">The 91% describes cross-source position relative to fitted rates—not the percentage of people represented.</text>
  <text x="55" y="782" fill="#5f6872" font-size="12">Source numerators and observation dates differ; fitted rates are source specific.</text>
  <text x="1145" y="782" fill="#5f6872" font-size="12" text-anchor="end">Cabrera &amp; Rowe / DEBIAS</text>
</svg>
